<svg xmlns="http://www.w3.org/2000/svg" width="361.149" height="228.131" viewBox="0 0 361.149 228.131">
  <g id="Group_51" data-name="Group 51" transform="translate(5004.091 198.26)">
    <path id="Path_573" data-name="Path 573" d="M365.767,1295.264l-1.814,5.908-6.339,20.652-4.861,15.849-10.1,29.5-6.7-24.4-4.121-13.428,7.431-23.962.286-.925a13.787,13.787,0,0,1,13.032-9.276h12.912Z" transform="translate(-5171 -1493.44)" fill="#041c34"/>
    <path id="Path_574" data-name="Path 574" d="M332.792,1365.195h-.046a27.844,27.844,0,0,0-20.545,9.019l-11.256-36.538-1.312-4.275-1.312,4.275-18.716,60.755a18.4,18.4,0,0,1-17.953,14.373h-.262a18.4,18.4,0,0,1-17.953-14.373l-18.716-60.755-4.861-15.855-6.342-20.645-1.813-5.91.27-.084H224.89a13.786,13.786,0,0,1,13.031,9.273l.285.926,21.7,70.707,1.612,5.254,1.612-5.254,21.7-70.707.285-.926a13.8,13.8,0,0,1,13.031-9.273h2.962a13.8,13.8,0,0,1,13.031,9.273l.285.926,12.414,40.449Z" transform="translate(-5171 -1493.44)" fill="#1cd2e2"/>
    <path id="Path_575" data-name="Path 575" d="M390.358,1330.195a13,13,0,0,0,9.945,12.63h18.145l17.552.03,10.1.016,3.842.007a35.012,35.012,0,0,1,11.58,67.237,32.846,32.846,0,0,0,2.546-28.754.475.475,0,0,0-.023-.07,25.529,25.529,0,0,0-23.755-16.1H403.057a35,35,0,0,1-20.005-63.51.028.028,0,0,1,.008-.015,34.894,34.894,0,0,1,18.161-6.419l4.166-.007,33.514-.054,16.571.007,21.6-.007h6.188v.285l-3.788,12.344a13.791,13.791,0,0,1-12.691,9.736h-.973l-29.795.008H400.279a13,13,0,0,0-9.921,12.637" transform="translate(-5171 -1493.44)" fill="#1cd2e2"/>
    <path id="Path_576" data-name="Path 576" d="M464.067,1381.361c.164.416.314.839.456,1.265-.145-.425-.3-.848-.456-1.265" transform="translate(-5171 -1493.44)" fill="#1cd2e2"/>
    <path id="Path_577" data-name="Path 577" d="M348.258,1393.14a15.745,15.745,0,1,1-15.745-15.745,15.745,15.745,0,0,1,15.745,15.745" transform="translate(-5171 -1493.44)" fill="#041c34"/>
    <path id="Path_578" data-name="Path 578" d="M449.183,1393.14a15.745,15.745,0,1,1-15.745-15.745,15.745,15.745,0,0,1,15.745,15.745" transform="translate(-5171 -1493.44)" fill="#041c34"/>
    <path id="Path_579" data-name="Path 579" d="M399.454,1393.14a15.745,15.745,0,1,1-15.745-15.745,15.745,15.745,0,0,1,15.745,15.745" transform="translate(-5171 -1493.44)" fill="#041c34"/>
    <path id="Path_580" data-name="Path 580" d="M211.25,1481.076h-2.077c-.931,0-2.651-.072-4.155-2.722-3.152-5.587-6.59-14.685-8.6-23.926-2.077,9.385-5.659,19.2-10.1,26.648h-2.006a4.457,4.457,0,0,1-4.37-2.722c-6.375-11.318-11.246-26.719-13.037-40.831h4.943c3.008,0,4.87,2.651,5.229,4.943a107.765,107.765,0,0,0,7.092,25c3.94-9.241,7.091-22.135,8.238-28.295h2.865c2.865,0,5.874,1.289,6.733,5.731a107.417,107.417,0,0,0,7.164,22.564,125.277,125.277,0,0,0,8.023-29.871h4.512a3.692,3.692,0,0,1,3.726,4.011c0,2.364-3.009,12.679-4.442,17.264a106.181,106.181,0,0,1-9.742,22.206" transform="translate(-5171 -1493.44)" fill="#041c34"/>
    <path id="Path_581" data-name="Path 581" d="M254.582,1467.968h-5.3c.645,4.083,4.37,6.661,9.1,6.661,3.367,0,7.378-.644,9.957-3.08h.286v2.579c0,4.155-2.793,7.307-11.748,7.307a16,16,0,0,1-15.9-16.333c0-10.816,6.59-17.621,15.831-17.621,6.734,0,13.038,4.871,13.038,12.607,0,5.946-4.513,7.88-15.259,7.88m1.505-13.754c-3.869,0-6.591,3.224-6.806,6.949v1.074h3.582c7.665,0,9.384-.859,9.384-3.152,0-3.223-2.435-4.871-6.16-4.871" transform="translate(-5171 -1493.44)" fill="#041c34"/>
    <path id="Path_582" data-name="Path 582" d="M307.014,1481.435c-8.309,0-15.33-6.806-15.33-16.548v-29.656h2.794c3.152,0,5.3,1.791,5.3,5.587v11.6a10.458,10.458,0,0,1,8.74-4.943c8.309,0,14.613,6.734,14.613,16.333,0,9.742-6.3,17.622-16.118,17.622m0-26.791c-4.084,0-7.163,4.083-7.163,9.1,0,7.45,3.152,10.53,7.951,10.53,4.083,0,6.948-3.868,6.948-9.1,0-7.88-2.794-10.53-7.736-10.53" transform="translate(-5171 -1493.44)" fill="#041c34"/>
    <path id="Path_583" data-name="Path 583" d="M357.8,1481.506c-8.74,0-13.18-3.439-13.18-8.524v-3.869h.143a17.747,17.747,0,0,0,12.106,4.656c6.447,0,8.524-2.22,8.524-5.659,0-2.937-1.146-4.3-10.244-6.232-7.306-1.575-11.46-5.229-11.46-11.1,0-7.163,6.016-13.968,16.188-13.968,10.1,0,12.966,4.226,12.966,7.88v3.939h-.215c-2.651-2.865-6.519-4.227-11.246-4.227-6.662,0-9.169,2.222-9.169,5.588,0,2.579,2.005,4.155,10.1,5.8,7.879,1.647,11.748,5.73,11.748,11.532,0,8.525-5.8,14.184-16.261,14.184" transform="translate(-5171 -1493.44)" fill="#041c34"/>
    <path id="Path_584" data-name="Path 584" d="M418.611,1445.116h-7.952v35.6h-3.437c-3.01,0-5.23-1.934-5.23-5.8v-29.8H389.528v-2.865a4.934,4.934,0,0,1,5.229-4.728h29.012v2.722a5.459,5.459,0,0,1-5.158,4.871" transform="translate(-5171 -1493.44)" fill="#041c34"/>
    <path id="Path_585" data-name="Path 585" d="M458.864,1481.076h-3.653c-7.307,0-11.963-2.865-11.963-9.527v-32.521a40.258,40.258,0,0,1,10.673-1.648h4.442c9.956,0,20.344,6.662,20.344,21.061,0,13.108-8.6,22.635-19.843,22.635m-1.791-36.389h-1.862a25.014,25.014,0,0,0-3.3.429V1469.9c0,2.507,1.146,3.653,4.3,3.653h1.5c7.092,0,12.177-6.088,12.177-13.9,0-9.671-5.372-14.971-12.822-14.971" transform="translate(-5171 -1493.44)" fill="#041c34"/>
    <path id="Path_586" data-name="Path 586" d="M515.38,1462.308v18.41h-3.653a5.274,5.274,0,0,1-5.23-5.659v-12.751a96.763,96.763,0,0,1-13.181-24.785H497.4c3.366,0,5.229,1.719,5.8,3.008a90.972,90.972,0,0,0,8.237,15.115c2.793-3.869,7.378-11.6,9.313-18.123h3.795a3.165,3.165,0,0,1,3.51,3.367c0,3.3-8.81,16.905-12.678,21.418" transform="translate(-5171 -1493.44)" fill="#041c34"/>
    <path id="Path_587" data-name="Path 587" d="M194.261,1506.221a.163.163,0,0,1-.251.014c-.074-.056-.144-.112-.209-.168a3.437,3.437,0,0,1-.292-.208q-.377-.266-.725-.474a7.345,7.345,0,0,0-1.824-.669,7.731,7.731,0,0,0-1.2-.153h-.654a2.687,2.687,0,0,0-.363.028l-.167.014-.167.014a5.924,5.924,0,0,0-1.365.334,3.17,3.17,0,0,0-1.184.766,2.8,2.8,0,0,0-.711,1.254l-.041.195a.8.8,0,0,0-.028.2,2.5,2.5,0,0,0-.041.39l-.015.209v.083l.015.112.013.237.028.167.014.083.028.1.055.181a.819.819,0,0,0,.07.181l.042.083.042.1.1.167.1.168.069.083.056.083a1.229,1.229,0,0,0,.125.154,5.888,5.888,0,0,0,1.393,1.086,18.965,18.965,0,0,0,1.727.849l.238.1.236.112.46.209.9.418a15.15,15.15,0,0,1,1.866.975,7.553,7.553,0,0,1,1.672,1.392,4.447,4.447,0,0,1,.989,2.02l.056.279a1.8,1.8,0,0,1,.027.278l.014.278.014.14v.153l-.014.237-.014.111v.139l-.042.279-.041.279a4.567,4.567,0,0,1-.878,1.935,4.648,4.648,0,0,1-1.574,1.3,7.205,7.205,0,0,1-1.755.613l-.208.042-.223.028a2,2,0,0,1-.418.055l-.418.042-.4.014-.2.014h-.223l-.362-.014a2.892,2.892,0,0,1-.362-.028l-.2-.014-.195-.028a8.943,8.943,0,0,1-3.482-1.142q-.376-.222-.711-.46-.264-.18-.5-.376-.153-.125-.279-.236a.175.175,0,0,1,0-.279l.683-.64a.17.17,0,0,1,.264,0l.168.138a4.748,4.748,0,0,0,.418.321,6.9,6.9,0,0,0,.612.39,7.394,7.394,0,0,0,1.8.752,8.136,8.136,0,0,0,1.184.251l.154.014.153.013a2.233,2.233,0,0,0,.348.028l.362.015h.069l.084-.015h.182l.348-.013.361-.028c.1-.009.223-.023.363-.042l.18-.042.2-.028a5.634,5.634,0,0,0,1.406-.487,3.355,3.355,0,0,0,1.157-.934,3.416,3.416,0,0,0,.64-1.42l.028-.181.028-.2a.358.358,0,0,0,.014-.11v-.112l.014-.237v-.194l-.014-.21a2.038,2.038,0,0,0-.014-.209l-.028-.1-.014-.1a3.24,3.24,0,0,0-.724-1.462,9.08,9.08,0,0,0-3.078-2.048l-.934-.417-.446-.223-.208-.1-.237-.1a17.809,17.809,0,0,1-1.852-.92,7.278,7.278,0,0,1-1.686-1.337,2.207,2.207,0,0,1-.181-.209l-.083-.111-.084-.112q-.2-.306-.292-.487l-.056-.139-.056-.126a1.44,1.44,0,0,1-.1-.264l-.084-.264-.027-.154-.028-.14-.056-.292v-.236l-.014-.112v-.139h0v-.279c.009-.139.027-.316.055-.529.009-.075.024-.158.043-.251l.069-.251a3.8,3.8,0,0,1,1.017-1.81,4.814,4.814,0,0,1,1.615-1.044,7.075,7.075,0,0,1,1.672-.405l.209-.014.208-.014a3.253,3.253,0,0,1,.376-.028h.376l.377.015a7.774,7.774,0,0,1,3.524.961,6.926,6.926,0,0,1,.724.445c.176.112.348.232.515.363.056.055.144.134.265.236a.176.176,0,0,1,0,.279Z" transform="translate(-5171 -1493.44)" fill="#041c34"/>
    <path id="Path_588" data-name="Path 588" d="M213.084,1521.542a6.035,6.035,0,1,1,4.275,1.769,5.856,5.856,0,0,1-4.275-1.769m.919-7.619a4.726,4.726,0,1,0,3.356-1.392,4.556,4.556,0,0,0-3.356,1.392" transform="translate(-5171 -1493.44)" fill="#041c34"/>
    <path id="Path_589" data-name="Path 589" d="M238.439,1512.489a.173.173,0,0,1-.2-.2v-.919a.172.172,0,0,1,.2-.195h4.693a.172.172,0,0,1,.195.195v.919a.172.172,0,0,1-.195.2Zm1.434,10.822c-.121,0-.181-.065-.181-.2V1506.96a3.8,3.8,0,0,1,.446-1.867,2.851,2.851,0,0,1,2.869-1.5,3.507,3.507,0,0,1,1.658.627.17.17,0,0,1,.041.278l-.557.738a.167.167,0,0,1-.264.042,1.844,1.844,0,0,0-1.908-.237,1.955,1.955,0,0,0-.975,1.923v16.156a.173.173,0,0,1-.2.2Z" transform="translate(-5171 -1493.44)" fill="#041c34"/>
    <path id="Path_590" data-name="Path 590" d="M264.2,1522.433c.084.112.069.2-.042.265a3.287,3.287,0,0,1-1.866.613,2.636,2.636,0,0,1-1.226-.293,2.749,2.749,0,0,1-1.184-1.142,3.683,3.683,0,0,1-.418-1.769v-7.577h-1.685a.172.172,0,0,1-.2-.2v-.933a.172.172,0,0,1,.2-.195h1.685l-.014-3.44a.172.172,0,0,1,.2-.195h.933a.172.172,0,0,1,.2.195v3.44h1.909a.172.172,0,0,1,.194.195v.933a.172.172,0,0,1-.194.2h-1.909v7.577a1.763,1.763,0,0,0,.878,1.741,1.643,1.643,0,0,0,1.727-.208.176.176,0,0,1,.264.041Z" transform="translate(-5171 -1493.44)" fill="#041c34"/>
    <path id="Path_591" data-name="Path 591" d="M291.99,1511.319a.172.172,0,0,1,.182-.125h.988a.209.209,0,0,1,.167.083.153.153,0,0,1,.014.167l-4.123,11.742a.172.172,0,0,1-.181.125h-.71a.172.172,0,0,1-.181-.125l-3.356-10.1-3.371,10.1a.172.172,0,0,1-.182.125h-.7a.172.172,0,0,1-.181-.125l-4.137-11.742a.2.2,0,0,1,.182-.25h.988a.172.172,0,0,1,.181.125l3.385,9.708,3.148-9.708a.172.172,0,0,1,.181-.125h.989a.172.172,0,0,1,.181.125l3.161,9.708Z" transform="translate(-5171 -1493.44)" fill="#041c34"/>
    <path id="Path_592" data-name="Path 592" d="M315.3,1523.311a.179.179,0,0,1-.2-.167q-.124-1-.194-1.88a4.717,4.717,0,0,1-.878.933,4.828,4.828,0,0,1-1.95.962,5.966,5.966,0,0,1-2.3.055,4,4,0,0,1-1.2-.4,3.1,3.1,0,0,1-1.018-.877,3.735,3.735,0,0,1-.6-2.438,3.2,3.2,0,0,1,.348-1.24,2.911,2.911,0,0,1,.809-.975,5.016,5.016,0,0,1,1.963-.919,10.889,10.889,0,0,1,1.811-.264q.74-.042,1.5-.015c.2,0,.413.01.627.028.14,0,.316.01.529.028l.21.015a4.261,4.261,0,0,0-.809-2.925,3.032,3.032,0,0,0-2.242-.711,5.272,5.272,0,0,0-2.089.4,5.087,5.087,0,0,0-.655.348c-.075.047-.148.1-.223.153-.056.047-.106.089-.153.126a.168.168,0,0,1-.251,0l-.7-.627a.178.178,0,0,1,0-.292c.065-.056.134-.112.209-.167.092-.075.19-.149.293-.223a5.943,5.943,0,0,1,.835-.474,6.5,6.5,0,0,1,2.73-.571,3.777,3.777,0,0,1,4.248,3.468,9.294,9.294,0,0,1,.111,1.351v1.365q-.014.474-.013.836,0,1.1.125,2.59.082,1.088.237,2.284c.018.15-.047.223-.2.223Zm-1.086-3.2a5.315,5.315,0,0,0,.474-1.212l.069-.265-.013-.417.013-.4v-.4l-.292-.028q-.585-.056-1.087-.07-.723-.014-1.406.028a9.458,9.458,0,0,0-1.588.223,3.767,3.767,0,0,0-1.476.668,1.791,1.791,0,0,0-.669,1.352,2.5,2.5,0,0,0,.4,1.588,2.078,2.078,0,0,0,1.379.766,4.5,4.5,0,0,0,1.769-.015,3.833,3.833,0,0,0,1.476-.682,3.67,3.67,0,0,0,.947-1.128" transform="translate(-5171 -1493.44)" fill="#041c34"/>
    <path id="Path_593" data-name="Path 593" d="M337.24,1511.319a.177.177,0,0,1,.154.237l-.182.905a.176.176,0,0,1-.222.153,3.118,3.118,0,0,0-.515-.041,3.471,3.471,0,0,0-3.469,3.468v7.075c0,.13-.06.2-.181.2h-.933a.172.172,0,0,1-.2-.2v-11.741a.172.172,0,0,1,.2-.195h.933c.121,0,.181.064.181.195v1.393a4.587,4.587,0,0,1,3.469-1.505,5.23,5.23,0,0,1,.765.056" transform="translate(-5171 -1493.44)" fill="#041c34"/>
    <path id="Path_594" data-name="Path 594" d="M351.661,1521.542a5.847,5.847,0,0,1-1.782-4.289,5.927,5.927,0,0,1,1.712-4.305,5.736,5.736,0,0,1,8.26.029,5.794,5.794,0,0,1,1.685,4.178v.306a.162.162,0,0,1-.167.181l-10,.879a4.744,4.744,0,0,0,8.579,1.266.171.171,0,0,1,.265-.07l.808.46a.187.187,0,0,1,.069.279,6.053,6.053,0,0,1-2.214,2.088,5.906,5.906,0,0,1-2.939.767,5.827,5.827,0,0,1-4.276-1.769m.85-7.689a4.71,4.71,0,0,0-1.309,3.358l8.983-.781a4.239,4.239,0,0,0-1.434-2.814,4.416,4.416,0,0,0-3.037-1.1,4.254,4.254,0,0,0-3.2,1.337" transform="translate(-5171 -1493.44)" fill="#041c34"/>
    <path id="Path_595" data-name="Path 595" d="M396.675,1523.283a.172.172,0,0,1-.195-.195v-19.541a.172.172,0,0,1,.195-.195h.932c.121,0,.182.065.182.195v19.541c0,.13-.061.195-.182.195Zm13.8-9.3h-14v-1.323h14Zm-1.114,9.332a.172.172,0,0,1-.2-.2v-19.541a.173.173,0,0,1,.2-.2h.933c.121,0,.181.066.181.2v19.541c0,.13-.06.2-.181.2Z" transform="translate(-5171 -1493.44)" fill="#041c34"/>
    <path id="Path_596" data-name="Path 596" d="M428.2,1521.542a6.035,6.035,0,1,1,4.275,1.769,5.856,5.856,0,0,1-4.275-1.769m.919-7.619a4.726,4.726,0,1,0,3.356-1.392,4.556,4.556,0,0,0-3.356,1.392" transform="translate(-5171 -1493.44)" fill="#041c34"/>
    <path id="Path_597" data-name="Path 597" d="M463.165,1511.166a.172.172,0,0,1,.195.194v11.756a.172.172,0,0,1-.195.2h-.919a.172.172,0,0,1-.2-.2v-1.476l-.056.069-.056.07a4.777,4.777,0,0,1-3.189,1.519l-.237.013h-.25l-.266-.028-.25-.028a4.2,4.2,0,0,1-1-.264,4.533,4.533,0,0,1-1.727-1.17,4.586,4.586,0,0,1-1.072-1.811,3.926,3.926,0,0,1-.21-1.017,2.1,2.1,0,0,1-.013-.251,1.943,1.943,0,0,1-.015-.236v-3.594q-.014-1.851-.013-3.078v-.474a.172.172,0,0,1,.2-.194h.933c.12,0,.181.065.181.194v3.552c0,.2-.005.441-.014.71v2.884c0,.148,0,.274.014.376a3.115,3.115,0,0,0,.14.752,3.565,3.565,0,0,0,.779,1.337,3.325,3.325,0,0,0,1.282.863,3.721,3.721,0,0,0,.738.21l.181.028.181.013h.376a3.475,3.475,0,0,0,1.365-.361,3.59,3.59,0,0,0,1.017-.753,3.642,3.642,0,0,0,.613-.891,3.339,3.339,0,0,0,.279-.78c.018-.1.032-.2.041-.307a.525.525,0,0,0,.014-.125l.014-.083v-.223l.028-.572v-6.63a.172.172,0,0,1,.2-.194Z" transform="translate(-5171 -1493.44)" fill="#041c34"/>
    <path id="Path_598" data-name="Path 598" d="M484.773,1513.227a.194.194,0,0,1-.264.014,1.835,1.835,0,0,0-.266-.2,2.189,2.189,0,0,0-.333-.208,3.877,3.877,0,0,0-.99-.363,5.709,5.709,0,0,0-.654-.083H481.9a1.725,1.725,0,0,0-.209.014h-.084l-.084.014a2.778,2.778,0,0,0-.737.181,1.45,1.45,0,0,0-.6.39,1.239,1.239,0,0,0-.348.613l-.028.1-.015.1c-.009.093-.013.162-.013.209l-.014.111v-.014l.014.042v.195l.028.083a.233.233,0,0,0,.013.07l.028.1.028.084.042.084.042.083.055.084.07.084.07.083a3.122,3.122,0,0,0,.738.571q.361.21.975.488l.139.056.153.069.265.126.53.222a10.623,10.623,0,0,1,1.1.585,4.271,4.271,0,0,1,1.03.877,2.71,2.71,0,0,1,.641,1.282l.042.181a1.553,1.553,0,0,1,.013.181l.015.168v.333a.988.988,0,0,0-.015.154l-.028.181-.027.181a2.9,2.9,0,0,1-1.56,2.061,4.071,4.071,0,0,1-1.086.377,6.722,6.722,0,0,1-1.018.125h-.264l-.209-.014c-.055,0-.13-.005-.223-.014h-.125l-.111-.014q-.39-.055-.85-.167a6,6,0,0,1-1.282-.543,3.791,3.791,0,0,1-.529-.335c-.12-.092-.232-.18-.334-.264a.177.177,0,0,1,0-.292l.669-.642a.177.177,0,0,1,.264-.013,1.5,1.5,0,0,0,.223.181,3.6,3.6,0,0,0,.362.236,4.41,4.41,0,0,0,.975.4,5.429,5.429,0,0,0,.641.139l.084.015h.083a1.434,1.434,0,0,0,.2.013l.209.015h.084l.1-.015a5.536,5.536,0,0,0,.794-.069,2.893,2.893,0,0,0,.752-.264,1.6,1.6,0,0,0,.906-1.185l.013-.1.015-.084a.439.439,0,0,0,.013-.125v-.139l.014-.042v0l-.014-.056v-.1a.618.618,0,0,0-.013-.112l-.015-.1a1.67,1.67,0,0,0-.361-.737,5.088,5.088,0,0,0-1.7-1.129l-.543-.236-.265-.126-.111-.055-.14-.056a10.444,10.444,0,0,1-1.1-.558,4.387,4.387,0,0,1-1.045-.821.885.885,0,0,1-.111-.139l-.112-.14a2.406,2.406,0,0,1-.18-.32l-.084-.167a.86.86,0,0,1-.056-.167,3.05,3.05,0,0,1-.1-.376l-.028-.195v-.125l-.014-.07v-.112l.014-.167a2.284,2.284,0,0,1,.028-.32l.028-.168.041-.166a2.519,2.519,0,0,1,.655-1.157,3.1,3.1,0,0,1,1.031-.668,4.977,4.977,0,0,1,1.03-.251h.14l.125-.013a2.168,2.168,0,0,1,.223-.015h.459a5.456,5.456,0,0,1,.85.112,5.179,5.179,0,0,1,1.31.487c.157.084.306.172.445.265.1.074.2.153.307.236a.907.907,0,0,1,.111.1.165.165,0,0,1,0,.279Z" transform="translate(-5171 -1493.44)" fill="#041c34"/>
    <path id="Path_599" data-name="Path 599" d="M502.008,1521.542a5.847,5.847,0,0,1-1.782-4.289,5.927,5.927,0,0,1,1.712-4.305,5.736,5.736,0,0,1,8.26.029,5.794,5.794,0,0,1,1.685,4.178v.306a.162.162,0,0,1-.167.181l-10,.879a4.744,4.744,0,0,0,8.579,1.266.171.171,0,0,1,.265-.07l.808.46a.187.187,0,0,1,.069.279,6.053,6.053,0,0,1-2.214,2.088,5.906,5.906,0,0,1-2.939.767,5.827,5.827,0,0,1-4.276-1.769m.85-7.689a4.71,4.71,0,0,0-1.309,3.358l8.983-.781a4.239,4.239,0,0,0-1.434-2.814,4.416,4.416,0,0,0-3.037-1.1,4.254,4.254,0,0,0-3.2,1.337" transform="translate(-5171 -1493.44)" fill="#041c34"/>
  </g>
</svg>
