<svg width="75" height="48" viewBox="0 0 75 48" fill="none" xmlns="http://www.w3.org/2000/svg">
<path d="M8.12974 10.1373L8.00607 10.1623C7.92731 10.176 7.85387 10.2119 7.79405 10.2658C7.71162 10.2762 7.63474 10.3136 7.5751 10.3725C7.53472 10.3506 7.47835 10.3686 7.406 10.4265L6.09101 11.0595C6.06697 10.9611 6.06311 10.8587 6.07966 10.7587C6.08132 10.7485 6.08497 10.7386 6.09038 10.7298C6.0958 10.721 6.10287 10.7133 6.11121 10.7073C6.54722 10.3879 7.12394 10.0447 7.46215 9.82944C11.5075 7.24415 16.0766 5.62877 20.8246 5.10528C21.1407 5.06929 21.3805 4.97161 21.6645 4.85271C23.9373 3.90158 26.2038 2.93439 28.5201 2.09443C31.5085 1.00963 34.6136 0.253225 37.7648 0.0700684C39.2936 -0.0159024 40.8257 -0.0227663 42.3552 0.0495034C45.9826 0.212985 49.5931 0.649684 53.1571 1.35602C54.2496 1.57238 55.3334 1.82623 56.4086 2.11757C56.5693 2.16127 56.722 2.2099 56.8667 2.26345C56.9134 2.28059 56.9128 2.29601 56.8648 2.30972C54.5474 2.97637 52.198 3.5584 49.8167 4.05582C47.0706 4.62971 44.4608 5.05001 41.7652 5.01723C41.7641 5.01691 41.7631 5.01623 41.7623 5.0153C41.7616 5.01436 41.7612 5.01321 41.7611 5.012C41.761 5.0108 41.7613 5.0096 41.762 5.00858C41.7626 5.00756 41.7635 5.00677 41.7646 5.00631C42.4757 4.90734 43.0316 4.8842 43.8873 4.69976C46.121 4.21841 48.3319 3.45044 50.4117 2.51602C50.4634 2.49288 50.4619 2.47382 50.4073 2.45882C49.2185 2.13792 48.0116 1.85687 46.7866 1.61566C43.7257 1.0122 40.5954 0.769278 37.5281 1.09896C35.0957 1.36052 32.7617 1.92542 30.1601 2.72359C27.7741 3.45579 25.4169 4.26511 23.0886 5.15155C23.0318 5.17297 23.0326 5.19225 23.0911 5.20939C23.2417 5.25266 23.4064 5.29443 23.5852 5.33471C24.7689 5.59862 25.9602 5.81948 27.1591 5.99728C27.165 5.99814 27.1669 6.00307 27.1648 6.01207C27.1645 6.01419 27.1636 6.01617 27.1621 6.01769C27.1606 6.0192 27.1587 6.02016 27.1566 6.02042C23.9026 6.37838 20.658 6.86423 17.4463 7.50624C14.4605 8.10327 11.4898 8.85775 8.62822 9.91813C8.45812 9.9815 8.29169 10.0547 8.12974 10.1373Z" fill="#DF9011"/>
<path d="M72.7322 11.4868L72.6287 11.9926C72.6285 11.9939 72.628 11.9951 72.6272 11.9961C72.6265 11.9971 72.6254 11.9979 72.6243 11.9984C72.6193 12.0007 72.6145 12.0033 72.6098 12.0061C72.6074 12.0076 72.6047 12.0084 72.602 12.0087C72.5992 12.0089 72.5965 12.0085 72.5939 12.0074C72.5913 12.0063 72.5889 12.0047 72.587 12.0026C72.585 12.0005 72.5836 11.9979 72.5827 11.9952C72.4245 11.4235 72.2233 10.8651 71.9808 10.3249C71.9791 10.3209 71.9765 10.3173 71.9732 10.3145C71.9699 10.3117 71.966 10.3098 71.9618 10.3089C71.9538 10.3062 71.9452 10.3062 71.9372 10.3089C71.9311 10.2288 71.9083 10.1511 71.8703 10.0807C69.8461 5.97029 65.6273 5.14898 61.5373 5.03587C61.1444 5.02516 60.7237 5.02387 60.2753 5.03201C57.8031 5.077 55.3334 5.26851 52.8744 5.52686C50.9137 5.73294 48.953 5.93837 46.9923 6.14316C45.9777 6.24899 44.2322 6.4088 41.7557 6.62259C41.1079 6.67871 40.6494 6.7102 40.3802 6.71706C40.3774 6.71706 40.3751 6.71532 40.3751 6.7132C40.3751 6.70335 40.3749 6.70099 40.3745 6.70613C40.3745 6.70784 40.3751 6.70849 40.3764 6.70806C44.9732 6.18365 49.5371 5.59883 54.0581 4.57637C55.8628 4.16828 57.687 3.67601 59.3648 2.86947C59.3911 2.85668 59.421 2.85372 59.4493 2.86112C60.2311 3.04891 61.0225 3.19223 61.8199 3.29041C64.2491 3.5889 66.6939 3.73656 69.1407 3.73256C70.2468 3.73128 71.3649 3.67922 72.454 3.47357C72.5402 3.45729 72.5514 3.47957 72.4874 3.54041C72.0268 3.98127 71.2968 4.29553 70.7497 4.40864C70.5684 4.44634 70.3858 4.49368 70.202 4.55066C70.1982 4.55173 70.1947 4.55377 70.1919 4.55659C70.1891 4.5594 70.187 4.56289 70.1859 4.56675C70.1847 4.5706 70.1846 4.57468 70.1854 4.57861C70.1862 4.58254 70.188 4.58619 70.1906 4.58922C71.3422 5.98186 72.3 7.72603 72.6199 9.53639C72.6717 9.83008 72.7411 10.1328 72.7581 10.4162C72.7806 10.7732 72.7719 11.1314 72.7322 11.4868Z" fill="#DF9011"/>
<path d="M26.4959 10.1572L23.9341 10.1495C23.0191 9.04091 21.9193 8.25558 20.4914 8.05443C18.3971 7.75881 16.3578 8.37576 14.8737 9.92263C14.8686 9.92777 14.8659 9.92692 14.8655 9.92006C14.8655 9.91812 14.8657 9.91618 14.8661 9.91428C14.8661 9.91333 14.8662 9.91239 14.8665 9.91151C14.8669 9.91062 14.8674 9.90982 14.868 9.90914C16.0397 8.41239 17.869 7.58851 19.719 7.47411C21.9326 7.33723 24.3713 8.00109 26.0125 9.58267C26.1927 9.75667 26.3547 9.94921 26.4959 10.1572Z" fill="#DF9011"/>
<path d="M66.9852 10.1341C66.8111 10.1679 66.6325 10.1701 66.4577 10.1405L65.7156 10.1463L64.8966 10.1431C63.6557 8.77378 62.094 8.05872 60.2115 7.99788C59.7696 7.98182 59.3272 7.99858 58.8877 8.048C57.4497 8.21574 56.2628 8.8841 55.262 9.93484C55.2611 9.93605 55.2599 9.93702 55.2585 9.93769C55.2572 9.93836 55.2557 9.93871 55.2542 9.93871C55.2526 9.93871 55.2511 9.93836 55.2498 9.93769C55.2484 9.93702 55.2472 9.93605 55.2463 9.93484H55.2456C55.2445 9.93389 55.2435 9.9327 55.2428 9.93134C55.2421 9.92998 55.2418 9.92848 55.2417 9.92696C55.2416 9.92543 55.2419 9.92391 55.2425 9.9225C55.2431 9.92109 55.2439 9.91982 55.245 9.91878C56.4193 8.57755 57.7608 7.75238 59.5345 7.53002C62.1045 7.20741 65.0108 7.89762 66.8243 9.90271C66.8869 9.97295 66.9409 10.0506 66.9852 10.1341Z" fill="#DF9011"/>
<path d="M8.00586 10.1623L8.12953 10.1373L8.39329 10.1328C8.39733 10.1327 8.40135 10.1334 8.40511 10.135C8.40886 10.1365 8.41226 10.1388 8.41512 10.1418C8.42092 10.1478 8.42419 10.1558 8.4242 10.1643L8.42484 28.8765C8.42573 28.8828 8.42516 28.8893 8.42316 28.8955C8.42117 28.9016 8.4178 28.9071 8.41333 28.9117C8.40886 28.9162 8.40341 28.9196 8.39741 28.9217C8.39141 28.9237 8.38503 28.9243 8.37877 28.9234L8.04561 28.9253C8.04029 28.9262 8.03484 28.9257 8.02971 28.924C8.02459 28.9223 8.01993 28.9194 8.01612 28.9155C8.01231 28.9116 8.00945 28.9069 8.00778 28.9017C8.0061 28.8964 8.00566 28.8909 8.00649 28.8855L8.00586 10.1623Z" fill="#010101"/>
<path d="M9.43578 10.1328H8.63064C8.60555 10.1328 8.58521 10.1535 8.58521 10.1791V18.1416C8.58521 18.1671 8.60555 18.1878 8.63064 18.1878H9.43578C9.46087 18.1878 9.48121 18.1671 9.48121 18.1416V10.1791C9.48121 10.1535 9.46087 10.1328 9.43578 10.1328Z" fill="#010101"/>
<path d="M10.4228 10.1328H9.69335C9.67488 10.1328 9.65991 10.148 9.65991 10.1668V18.1512C9.65991 18.17 9.67488 18.1853 9.69335 18.1853H10.4228C10.4412 18.1853 10.4562 18.17 10.4562 18.1512V10.1668C10.4562 10.148 10.4412 10.1328 10.4228 10.1328Z" fill="#010101"/>
<path d="M12.9454 10.1334H11.1698C11.151 10.1334 11.1357 10.149 11.1357 10.1681V18.1499C11.1357 18.1691 11.151 18.1846 11.1698 18.1846H12.9454C12.9642 18.1846 12.9795 18.1691 12.9795 18.1499V10.1681C12.9795 10.149 12.9642 10.1334 12.9454 10.1334Z" fill="#010101"/>
<path d="M14.1133 10.1347H13.5871C13.5676 10.1347 13.5518 10.1508 13.5518 10.1707V18.1486C13.5518 18.1685 13.5676 18.1846 13.5871 18.1846H14.1133C14.1329 18.1846 14.1487 18.1685 14.1487 18.1486V10.1707C14.1487 10.1508 14.1329 10.1347 14.1133 10.1347Z" fill="#010101"/>
<path d="M15.058 10.1347H14.7185C14.7018 10.1347 14.6882 10.1485 14.6882 10.1656V18.1538C14.6882 18.1708 14.7018 18.1846 14.7185 18.1846H15.058C15.0747 18.1846 15.0883 18.1708 15.0883 18.1538V10.1656C15.0883 10.1485 15.0747 10.1347 15.058 10.1347Z" fill="#010101"/>
<path d="M16.8386 10.1341H16.2656C16.2513 10.1341 16.2397 10.1459 16.2397 10.1604V18.1589C16.2397 18.1735 16.2513 18.1853 16.2656 18.1853H16.8386C16.8528 18.1853 16.8644 18.1735 16.8644 18.1589V10.1604C16.8644 10.1459 16.8528 10.1341 16.8386 10.1341Z" fill="#010101"/>
<path d="M19.4761 10.1328H18.1258C18.1066 10.1328 18.0911 10.1486 18.0911 10.1681V18.1512C18.0911 18.1707 18.1066 18.1865 18.1258 18.1865H19.4761C19.4953 18.1865 19.5108 18.1707 19.5108 18.1512V10.1681C19.5108 10.1486 19.4953 10.1328 19.4761 10.1328Z" fill="#010101"/>
<path d="M20.0736 10.1308H19.873C19.8517 10.1308 19.8345 10.1484 19.8345 10.17V18.1518C19.8345 18.1735 19.8517 18.191 19.873 18.191H20.0736C20.0949 18.191 20.1121 18.1735 20.1121 18.1518V10.17C20.1121 10.1484 20.0949 10.1308 20.0736 10.1308Z" fill="#010101"/>
<path d="M21.0492 10.1315H20.6063C20.5888 10.1315 20.5747 10.1459 20.5747 10.1636V18.157C20.5747 18.1747 20.5888 18.1891 20.6063 18.1891H21.0492C21.0666 18.1891 21.0808 18.1747 21.0808 18.157V10.1636C21.0808 10.1459 21.0666 10.1315 21.0492 10.1315Z" fill="#010101"/>
<path d="M22.963 10.1328H21.9357C21.9162 10.1328 21.9004 10.1489 21.9004 10.1688V18.1518C21.9004 18.1717 21.9162 18.1878 21.9357 18.1878H22.963C22.9825 18.1878 22.9983 18.1717 22.9983 18.1518V10.1688C22.9983 10.1489 22.9825 10.1328 22.963 10.1328Z" fill="#010101"/>
<path d="M28.0783 10.1328H27.3325C27.3147 10.1328 27.3003 10.1475 27.3003 10.1656V18.1525C27.3003 18.1706 27.3147 18.1853 27.3325 18.1853H28.0783C28.0961 18.1853 28.1105 18.1706 28.1105 18.1525V10.1656C28.1105 10.1475 28.0961 10.1328 28.0783 10.1328Z" fill="#010101"/>
<path d="M29.3845 10.1341H28.8898C28.8703 10.1341 28.8545 10.1502 28.8545 10.1701V18.1493C28.8545 18.1691 28.8703 18.1853 28.8898 18.1853H29.3845C29.404 18.1853 29.4199 18.1691 29.4199 18.1493V10.1701C29.4199 10.1502 29.404 10.1341 29.3845 10.1341Z" fill="#010101"/>
<path d="M30.6705 10.1328H29.8754C29.8541 10.1328 29.8369 10.1503 29.8369 10.172V18.1473C29.8369 18.169 29.8541 18.1865 29.8754 18.1865H30.6705C30.6917 18.1865 30.7089 18.169 30.7089 18.1473V10.172C30.7089 10.1503 30.6917 10.1328 30.6705 10.1328Z" fill="#010101"/>
<path d="M32.8973 10.1321H31.9105C31.8889 10.1321 31.8713 10.15 31.8713 10.172V18.1461C31.8713 18.1681 31.8889 18.1859 31.9105 18.1859H32.8973C32.9189 18.1859 32.9364 18.1681 32.9364 18.1461V10.172C32.9364 10.15 32.9189 10.1321 32.8973 10.1321Z" fill="#010101"/>
<path d="M33.9675 10.1366H33.8514C33.8232 10.1366 33.8003 10.1599 33.8003 10.1887V18.1358C33.8003 18.1645 33.8232 18.1878 33.8514 18.1878H33.9675C33.9957 18.1878 34.0186 18.1645 34.0186 18.1358V10.1887C34.0186 10.1599 33.9957 10.1366 33.9675 10.1366Z" fill="#010101"/>
<path d="M34.707 10.1347H34.3991C34.3772 10.1347 34.3594 10.1528 34.3594 10.1752V18.1454C34.3594 18.1678 34.3772 18.1859 34.3991 18.1859H34.707C34.729 18.1859 34.7468 18.1678 34.7468 18.1454V10.1752C34.7468 10.1528 34.729 10.1347 34.707 10.1347Z" fill="#010101"/>
<path d="M37.4764 10.1315H35.4913C35.4738 10.1315 35.4597 10.1459 35.4597 10.1636V18.1544C35.4597 18.1721 35.4738 18.1865 35.4913 18.1865H37.4764C37.4938 18.1865 37.5079 18.1721 37.5079 18.1544V10.1636C37.5079 10.1459 37.4938 10.1315 37.4764 10.1315Z" fill="#010101"/>
<path d="M38.3409 10.136H37.9951C37.9791 10.136 37.9661 10.1492 37.9661 10.1655V18.155C37.9661 18.1714 37.9791 18.1846 37.9951 18.1846H38.3409C38.3569 18.1846 38.3699 18.1714 38.3699 18.155V10.1655C38.3699 10.1492 38.3569 10.136 38.3409 10.136Z" fill="#010101"/>
<path d="M39.7372 10.1315H39.0709C39.0552 10.1315 39.0425 10.1444 39.0425 10.1604V18.1576C39.0425 18.1736 39.0552 18.1865 39.0709 18.1865H39.7372C39.7529 18.1865 39.7656 18.1736 39.7656 18.1576V10.1604C39.7656 10.1444 39.7529 10.1315 39.7372 10.1315Z" fill="#010101"/>
<path d="M40.2141 10.1308H39.9983C39.9809 10.1308 39.9668 10.1452 39.9668 10.163V18.1576C39.9668 18.1754 39.9809 18.1897 39.9983 18.1897H40.2141C40.2316 18.1897 40.2457 18.1754 40.2457 18.1576V10.163C40.2457 10.1452 40.2316 10.1308 40.2141 10.1308Z" fill="#010101"/>
<path d="M41.502 10.1321H40.6981C40.68 10.1321 40.6653 10.1471 40.6653 10.1656V18.1538C40.6653 18.1722 40.68 18.1872 40.6981 18.1872H41.502C41.5201 18.1872 41.5348 18.1722 41.5348 18.1538V10.1656C41.5348 10.1471 41.5201 10.1321 41.502 10.1321Z" fill="#010101"/>
<path d="M42.8485 10.1321H42.0232C42.0071 10.1321 41.9941 10.1454 41.9941 10.1617V24.5623C41.9941 24.5787 42.0071 24.5919 42.0232 24.5919H42.8485C42.8645 24.5919 42.8775 24.5787 42.8775 24.5623V10.1617C42.8775 10.1454 42.8645 10.1321 42.8485 10.1321Z" fill="#010101"/>
<path d="M43.1931 10.1347H43.0783C43.0594 10.1347 43.0442 10.1502 43.0442 10.1694V24.5559C43.0442 24.5751 43.0594 24.5906 43.0783 24.5906H43.1931C43.2119 24.5906 43.2272 24.5751 43.2272 24.5559V10.1694C43.2272 10.1502 43.2119 10.1347 43.1931 10.1347Z" fill="#010101"/>
<path d="M43.8829 10.1315H43.5308C43.5116 10.1315 43.4961 10.1473 43.4961 10.1668V24.5572C43.4961 24.5767 43.5116 24.5925 43.5308 24.5925H43.8829C43.9021 24.5925 43.9176 24.5767 43.9176 24.5572V10.1668C43.9176 10.1473 43.9021 10.1315 43.8829 10.1315Z" fill="#010101"/>
<path d="M44.6601 10.1334H44.3269C44.3036 10.1334 44.2847 10.1527 44.2847 10.1765V18.1441C44.2847 18.1679 44.3036 18.1872 44.3269 18.1872H44.6601C44.6835 18.1872 44.7024 18.1679 44.7024 18.1441V10.1765C44.7024 10.1527 44.6835 10.1334 44.6601 10.1334Z" fill="#010101"/>
<path d="M46.6529 10.1321H45.5474C45.5282 10.1321 45.5127 10.148 45.5127 10.1675V18.1518C45.5127 18.1714 45.5282 18.1872 45.5474 18.1872H46.6529C46.6721 18.1872 46.6876 18.1714 46.6876 18.1518V10.1675C46.6876 10.148 46.6721 10.1321 46.6529 10.1321Z" fill="#010101"/>
<path d="M48.5318 10.1315H47.8113C47.7869 10.1315 47.7671 10.1516 47.7671 10.1765V18.1441C47.7671 18.169 47.7869 18.1891 47.8113 18.1891H48.5318C48.5562 18.1891 48.576 18.169 48.576 18.1441V10.1765C48.576 10.1516 48.5562 10.1315 48.5318 10.1315Z" fill="#010101"/>
<path d="M50.4054 10.1328H49.2166C49.195 10.1328 49.1775 10.1506 49.1775 10.1726V18.1467C49.1775 18.1687 49.195 18.1865 49.2166 18.1865H50.4054C50.427 18.1865 50.4445 18.1687 50.4445 18.1467V10.1726C50.4445 10.1506 50.427 10.1328 50.4054 10.1328Z" fill="#010101"/>
<path d="M53.6183 10.1315H52.1633C52.1396 10.1315 52.1204 10.1511 52.1204 10.1752V18.1428C52.1204 18.167 52.1396 18.1865 52.1633 18.1865H53.6183C53.642 18.1865 53.6612 18.167 53.6612 18.1428V10.1752C53.6612 10.1511 53.642 10.1315 53.6183 10.1315Z" fill="#010101"/>
<path d="M55.1857 10.1328H54.9585C54.9358 10.1328 54.9175 10.1515 54.9175 10.1746V18.1422C54.9175 18.1653 54.9358 18.184 54.9585 18.184H55.1857C55.2083 18.184 55.2267 18.1653 55.2267 18.1422V10.1746C55.2267 10.1515 55.2083 10.1328 55.1857 10.1328Z" fill="#010101"/>
<path d="M56.6369 10.1321H56.1586C56.1391 10.1321 56.1233 10.1483 56.1233 10.1681V18.1512C56.1233 18.1711 56.1391 18.1872 56.1586 18.1872H56.6369C56.6564 18.1872 56.6723 18.1711 56.6723 18.1512V10.1681C56.6723 10.1483 56.6564 10.1321 56.6369 10.1321Z" fill="#010101"/>
<path d="M57.5569 10.1353H57.3436C57.3195 10.1353 57.3 10.1552 57.3 10.1797V18.1383C57.3 18.1628 57.3195 18.1827 57.3436 18.1827H57.5569C57.5809 18.1827 57.6004 18.1628 57.6004 18.1383V10.1797C57.6004 10.1552 57.5809 10.1353 57.5569 10.1353Z" fill="#010101"/>
<path d="M58.6876 10.1302H58.5501C58.5267 10.1302 58.5078 10.1495 58.5078 10.1733V18.1486C58.5078 18.1724 58.5267 18.1917 58.5501 18.1917H58.6876C58.711 18.1917 58.7299 18.1724 58.7299 18.1486V10.1733C58.7299 10.1495 58.711 10.1302 58.6876 10.1302Z" fill="#010101"/>
<path d="M60.6443 10.1321H59.4366C59.4209 10.1321 59.4082 10.1451 59.4082 10.1611V18.1583C59.4082 18.1742 59.4209 18.1872 59.4366 18.1872H60.6443C60.66 18.1872 60.6727 18.1742 60.6727 18.1583V10.1611C60.6727 10.1451 60.66 10.1321 60.6443 10.1321Z" fill="#010101"/>
<path d="M64.0592 10.1321H61.553C61.5369 10.1321 61.5239 10.1454 61.5239 10.1617V18.1563C61.5239 18.1727 61.5369 18.1859 61.553 18.1859H64.0592C64.0753 18.1859 64.0883 18.1727 64.0883 18.1563V10.1617C64.0883 10.1454 64.0753 10.1321 64.0592 10.1321Z" fill="#010101"/>
<path d="M66.9853 10.1341C66.9925 10.1364 66.9989 10.1408 67.0036 10.1469C67.0187 10.163 67.0271 10.1844 67.0269 10.2067L67.0263 18.1698C67.0266 18.1719 67.0264 18.1741 67.0257 18.1761C67.0251 18.1781 67.024 18.1799 67.0225 18.1814C67.021 18.1829 67.0192 18.184 67.0173 18.1847C67.0153 18.1854 67.0132 18.1856 67.0111 18.1853L66.4735 18.1885C66.4634 18.1889 66.4584 18.1838 66.4584 18.173L66.4578 10.1405C66.6326 10.1701 66.8112 10.1679 66.9853 10.1341Z" fill="#010101"/>
<path d="M68.2806 10.1315H67.4691C67.4503 10.1315 67.4351 10.147 67.4351 10.1662V18.1518C67.4351 18.171 67.4503 18.1865 67.4691 18.1865H68.2806C68.2994 18.1865 68.3147 18.171 68.3147 18.1518V10.1662C68.3147 10.147 68.2994 10.1315 68.2806 10.1315Z" fill="#010101"/>
<path d="M69.8342 10.131L68.8183 10.1362C68.8023 10.1362 68.7894 10.1495 68.7895 10.1659L68.8287 18.1579C68.8288 18.1743 68.8418 18.1874 68.8579 18.1874L69.8737 18.1822C69.8898 18.1821 69.9027 18.1688 69.9026 18.1525L69.8634 10.1604C69.8633 10.1441 69.8503 10.1309 69.8342 10.131Z" fill="#010101"/>
<path d="M70.4808 28.8675L70.3962 10.1675C70.3962 10.1635 70.397 10.1596 70.3985 10.1559C70.4 10.1523 70.4022 10.1489 70.4049 10.1461C70.4077 10.1433 70.411 10.1411 70.4145 10.1396C70.4181 10.1381 70.422 10.1373 70.4259 10.1373L71.1402 10.136C71.148 10.136 71.1556 10.1392 71.1611 10.1448C71.1667 10.1505 71.1698 10.1582 71.1698 10.1662L71.2575 28.8681C71.2575 28.8761 71.2544 28.8838 71.2489 28.8895C71.2433 28.8951 71.2357 28.8983 71.2279 28.8983L70.5104 28.8977C70.5066 28.8977 70.5027 28.8969 70.4991 28.8954C70.4955 28.8939 70.4922 28.8916 70.4895 28.8888C70.4867 28.886 70.4845 28.8827 70.483 28.879C70.4816 28.8754 70.4808 28.8714 70.4808 28.8675Z" fill="#010101"/>
<path d="M71.6616 10.1375L71.3738 10.1385C71.3564 10.1386 71.3423 10.153 71.3424 10.1708L71.4065 28.8681C71.4065 28.8858 71.4207 28.9002 71.4381 28.9001L71.7259 28.8991C71.7433 28.899 71.7574 28.8846 71.7573 28.8668L71.6932 10.1695C71.6932 10.1518 71.679 10.1374 71.6616 10.1375Z" fill="#010101"/>
<path d="M23.934 10.1495L26.4958 10.1572V18.1435C26.4958 18.1547 26.4915 18.1655 26.4836 18.1735C26.4758 18.1814 26.4652 18.1859 26.4542 18.1859H23.9763C23.9646 18.1859 23.9533 18.1812 23.9451 18.1727C23.9368 18.1643 23.9321 18.1528 23.9321 18.1409L23.934 10.1495Z" fill="#010101"/>
<path d="M65.7157 10.1463V18.1583C65.7157 18.1662 65.7126 18.1738 65.7071 18.1794C65.7045 18.1822 65.7013 18.1843 65.6977 18.1858C65.6942 18.1872 65.6904 18.1879 65.6866 18.1878L64.9275 18.1865C64.9191 18.1864 64.9111 18.1829 64.9052 18.1767C64.8993 18.1706 64.896 18.1624 64.896 18.1538L64.8966 10.1431L65.7157 10.1463Z" fill="#010101"/>
<path d="M7.79407 10.2658L7.7947 28.8893C7.79538 28.894 7.79496 28.8988 7.79348 28.9033C7.792 28.9078 7.7895 28.9119 7.78617 28.9152C7.78285 28.9185 7.77881 28.921 7.77437 28.9224C7.76993 28.9238 7.76522 28.9242 7.76063 28.9234L7.6073 28.9221C7.60281 28.9226 7.59826 28.9221 7.594 28.9206C7.58973 28.9191 7.58587 28.9165 7.58271 28.9133C7.57954 28.91 7.57715 28.906 7.57573 28.9016C7.57431 28.8973 7.57388 28.8926 7.57449 28.8881L7.57512 10.3725C7.63476 10.3136 7.71163 10.2762 7.79407 10.2658Z" fill="#010101"/>
<path d="M71.9373 10.3089C71.9453 10.3062 71.9539 10.3062 71.9619 10.3089C71.9661 10.3098 71.97 10.3117 71.9733 10.3145C71.9766 10.3173 71.9792 10.3209 71.9808 10.3249C72.2233 10.8651 72.4246 11.4235 72.5828 11.9952C72.5836 11.9979 72.5851 12.0005 72.587 12.0026C72.589 12.0047 72.5914 12.0063 72.594 12.0074C72.5966 12.0085 72.5993 12.0089 72.6021 12.0087C72.6048 12.0084 72.6075 12.0076 72.6099 12.0061C72.6146 12.0033 72.6194 12.0007 72.6244 11.9984C72.6256 11.9979 72.6266 11.9971 72.6273 11.9961C72.6281 11.9951 72.6286 11.9939 72.6288 11.9926L72.7323 11.4869L72.7979 28.8733C72.7979 28.8767 72.7973 28.8802 72.796 28.8834C72.7947 28.8866 72.7928 28.8895 72.7904 28.8919C72.788 28.8944 72.7851 28.8963 72.782 28.8976C72.7788 28.8989 72.7755 28.8996 72.7721 28.8996L72.0395 28.899C72.032 28.8989 72.0248 28.8958 72.0195 28.8904C72.0142 28.885 72.0112 28.8777 72.0111 28.8701L71.9373 10.3089Z" fill="#010101"/>
<path d="M7.4058 10.4265L7.40391 28.8726C7.40464 28.8778 7.40418 28.883 7.40256 28.888C7.40095 28.8929 7.39823 28.8974 7.39462 28.9011C7.391 28.9048 7.3866 28.9075 7.38175 28.9092C7.3769 28.9108 7.37174 28.9113 7.36668 28.9105H6.12174C6.11354 28.9105 6.10567 28.9072 6.09988 28.9013C6.09408 28.8954 6.09082 28.8874 6.09082 28.8791V11.0595L7.4058 10.4265Z" fill="#010101"/>
<path d="M15.126 21.0727C14.7196 20.7057 14.0489 20.7347 13.6015 20.9596C13.2961 21.1125 13.3245 21.333 13.3239 21.6884C13.323 22.4206 13.3232 23.1523 13.3245 23.8837C13.319 23.9895 13.3408 24.0949 13.3876 24.1896C13.6596 24.6594 14.7007 24.624 15.0761 24.3284C15.285 24.1639 15.2541 23.937 15.2522 23.698C15.252 23.6754 15.2601 23.6536 15.2749 23.6369C15.4156 23.4788 15.8314 23.527 16.0264 23.5315C16.058 23.5289 16.0898 23.5331 16.1197 23.5439C16.1496 23.5547 16.1769 23.5719 16.1998 23.5942C16.2227 23.6166 16.2407 23.6436 16.2526 23.6736C16.2644 23.7035 16.2699 23.7357 16.2687 23.768C16.2893 23.9765 16.2639 24.1871 16.1944 24.3844C16.1248 24.5816 16.0129 24.7605 15.8668 24.9081C15.0345 25.775 13.433 25.714 12.638 24.8284C12.4041 24.5683 12.2882 24.2369 12.2903 23.8342L12.3029 21.2957C12.3109 21.1634 12.3437 21.0338 12.3995 20.914C12.4903 20.7051 12.6214 20.517 12.785 20.3607C12.9485 20.2044 13.1412 20.0831 13.3516 20.004C13.6685 19.8709 14.0092 19.8071 14.3518 19.8166C14.6944 19.8261 15.0313 19.9088 15.3405 20.0592C15.9658 20.351 16.3798 20.9782 16.2504 21.6736C16.2429 21.7132 16.2222 21.749 16.1917 21.7748C16.1612 21.8006 16.1228 21.8148 16.0832 21.815L15.4326 21.8169C15.3858 21.8171 15.3407 21.7984 15.3073 21.765C15.2739 21.7315 15.2547 21.686 15.2541 21.6382C15.2515 21.4532 15.2938 21.2244 15.126 21.0727Z" fill="#010101"/>
<path d="M21.7225 25.5192C20.665 25.579 19.3576 25.4755 19.391 24.0161C19.4106 23.1594 19.3897 22.2976 19.3923 21.4403C19.3942 20.8722 19.4989 20.3446 20.022 20.0625C20.5943 19.754 21.5755 19.7855 22.1951 19.8954C23.0261 20.0419 23.3561 20.5689 23.3606 21.3921C23.3652 22.2863 23.3629 23.1802 23.3536 24.0739C23.3435 25.1324 22.6248 25.4678 21.7225 25.5192ZM22.3352 21.3182C22.3352 21.1837 22.2828 21.0548 22.1894 20.9597C22.096 20.8646 21.9694 20.8111 21.8374 20.8111H20.9136C20.7815 20.8111 20.6549 20.8646 20.5616 20.9597C20.4682 21.0548 20.4157 21.1837 20.4157 21.3182V24.0212C20.4157 24.1557 20.4682 24.2847 20.5616 24.3798C20.6549 24.4748 20.7815 24.5283 20.9136 24.5283H21.8374C21.9694 24.5283 22.096 24.4748 22.1894 24.3798C22.2828 24.2847 22.3352 24.1557 22.3352 24.0212V21.3182Z" fill="#010101"/>
<path d="M26.4592 20.1042C26.4591 20.0666 26.4662 20.0293 26.4802 19.9945C26.4942 19.9597 26.5148 19.9281 26.5408 19.9014C26.5668 19.8747 26.5978 19.8535 26.6318 19.839C26.6659 19.8245 26.7025 19.817 26.7394 19.817L28.5181 19.8105C29.7101 19.8063 30.679 20.6637 30.6824 21.7256L30.6888 23.589C30.6924 24.6506 29.7296 25.5146 28.5383 25.5189L26.7589 25.5254C26.722 25.5255 26.6855 25.5183 26.6513 25.5041C26.6172 25.4899 26.5862 25.4689 26.56 25.4425C26.5338 25.4161 26.513 25.3846 26.4987 25.35C26.4844 25.3154 26.477 25.2782 26.4768 25.2407L26.4592 20.1042ZM27.4978 20.8722V24.4891C27.4978 24.5085 27.5054 24.5271 27.5189 24.5409C27.5324 24.5546 27.5507 24.5623 27.5698 24.5623H28.5415C29.159 24.5623 29.6596 24.1693 29.6596 23.6845V21.6768C29.6596 21.192 29.159 20.7989 28.5415 20.7989H27.5698C27.5507 20.7989 27.5324 20.8067 27.5189 20.8204C27.5054 20.8341 27.4978 20.8528 27.4978 20.8722Z" fill="#010101"/>
<path d="M34.828 24.554L37.338 24.5533C37.3428 24.5526 37.3476 24.5531 37.3521 24.5546C37.3566 24.5562 37.3607 24.5587 37.3641 24.5622C37.3674 24.5656 37.37 24.5698 37.3715 24.5744C37.373 24.579 37.3734 24.5839 37.3727 24.5887L37.3721 25.4871C37.3727 25.4916 37.3723 25.4961 37.3709 25.5004C37.3695 25.5046 37.3672 25.5085 37.3641 25.5117C37.3609 25.5149 37.3571 25.5173 37.3529 25.5187C37.3488 25.5201 37.3443 25.5205 37.3399 25.5199L33.9938 25.5205C33.9353 25.5205 33.8793 25.4969 33.8379 25.4549C33.7965 25.4128 33.7731 25.3558 33.7729 25.2962C33.7738 23.5654 33.7748 21.8302 33.7761 20.0907C33.7765 19.9044 33.8703 19.8116 34.0575 19.8125C35.1563 19.8172 36.2515 19.8206 37.3431 19.8227C37.3471 19.8221 37.3512 19.8225 37.3551 19.8238C37.359 19.8251 37.3625 19.8273 37.3653 19.8303C37.3682 19.8332 37.3704 19.8368 37.3717 19.8407C37.373 19.8447 37.3733 19.8488 37.3727 19.8529L37.3746 20.7629C37.3753 20.7676 37.3749 20.7723 37.3734 20.7767C37.372 20.7812 37.3695 20.7852 37.3663 20.7885C37.363 20.7918 37.3591 20.7943 37.3547 20.7958C37.3504 20.7973 37.3457 20.7977 37.3412 20.797L34.8305 20.7964C34.826 20.7957 34.8214 20.796 34.8171 20.7975C34.8127 20.7989 34.8088 20.8013 34.8056 20.8046C34.8023 20.8078 34.7999 20.8118 34.7984 20.8161C34.7969 20.8205 34.7964 20.8252 34.797 20.8298L34.7977 22.0688C34.7977 22.0734 34.7986 22.078 34.8004 22.0822C34.8022 22.0864 34.8047 22.0903 34.808 22.0935C34.8112 22.0967 34.815 22.0993 34.8192 22.101C34.8234 22.1027 34.8279 22.1036 34.8324 22.1035L37.3418 22.1029C37.3459 22.1029 37.3499 22.1037 37.3537 22.1053C37.3574 22.1069 37.3608 22.1092 37.3637 22.1121C37.3666 22.115 37.3688 22.1185 37.3704 22.1223C37.3719 22.1261 37.3727 22.1302 37.3727 22.1344L37.3753 23.0669C37.3761 23.0725 37.3756 23.0782 37.3739 23.0836C37.3722 23.0891 37.3693 23.094 37.3653 23.098C37.3614 23.1021 37.3566 23.1052 37.3513 23.107C37.3461 23.1088 37.3404 23.1094 37.3349 23.1086L34.8311 23.1093C34.8266 23.1086 34.8219 23.109 34.8176 23.1105C34.8132 23.112 34.8093 23.1145 34.806 23.1178C34.8028 23.1211 34.8003 23.1251 34.7989 23.1296C34.7974 23.134 34.797 23.1387 34.7977 23.1433L34.797 24.5225C34.7964 24.5268 34.7968 24.5311 34.7982 24.5352C34.7995 24.5393 34.8018 24.543 34.8048 24.5461C34.8078 24.5492 34.8114 24.5515 34.8155 24.5528C34.8195 24.5542 34.8238 24.5546 34.828 24.554Z" fill="#010101"/>
<path d="M50.2382 20.9153C49.7719 20.7244 49.1712 20.743 48.7857 21.0798C48.7518 21.1111 48.7252 21.1496 48.7077 21.1926C48.6901 21.2356 48.682 21.282 48.6841 21.3285C48.6714 22.1747 48.6662 23.0208 48.6683 23.867C48.6634 23.9963 48.6978 24.124 48.7667 24.2326C49.0677 24.6716 50.307 24.6574 50.5512 24.1677C50.654 23.9614 50.4824 23.5501 50.8181 23.5341C51.0938 23.5212 51.5917 23.4486 51.6137 23.7545C51.7803 26.0546 47.6511 26.1034 47.6486 23.8895C47.6478 23.0622 47.6482 22.2351 47.6499 21.4082C47.6511 20.7996 48.06 20.3002 48.5831 20.056C49.1667 19.7749 49.8349 19.7366 50.4458 19.9493C51.1613 20.1871 51.6914 20.8208 51.6156 21.617C51.6011 21.7668 51.4958 21.8111 51.3557 21.8143C51.1554 21.819 50.9643 21.8186 50.7821 21.813C50.7336 21.8116 50.6875 21.791 50.6535 21.7556C50.6195 21.7203 50.6002 21.6729 50.5997 21.6235C50.5972 21.2713 50.5985 21.0624 50.2382 20.9153Z" fill="#010101"/>
<path d="M57.5968 23.644L55.7524 23.6491C55.7429 23.6491 55.7337 23.653 55.727 23.6598C55.7202 23.6667 55.7164 23.676 55.7164 23.6857L55.7171 25.3027C55.7171 25.3311 55.7117 25.3592 55.701 25.3854C55.6904 25.4117 55.6748 25.4356 55.6551 25.4557C55.6354 25.4758 55.612 25.4918 55.5863 25.5027C55.5606 25.5136 55.533 25.5192 55.5051 25.5192L54.8962 25.5212C54.8694 25.5212 54.8428 25.5159 54.818 25.5055C54.7932 25.4951 54.7707 25.4798 54.7517 25.4605C54.7327 25.4412 54.7177 25.4183 54.7074 25.3931C54.6971 25.3679 54.6918 25.3409 54.6917 25.3136C54.6913 24.1238 54.6913 22.9238 54.6917 21.7134C54.6917 21.1663 54.8463 20.7308 55.1555 20.4069C55.9884 19.5335 57.7135 19.6499 58.3944 20.6897C58.6127 21.0226 58.6487 21.3111 58.6493 21.7475C58.651 22.9296 58.6512 24.1215 58.6499 25.3232C58.6499 25.3754 58.6296 25.4254 58.5934 25.4623C58.5572 25.4992 58.508 25.5199 58.4568 25.5199L57.8871 25.5205C57.7146 25.521 57.6283 25.4333 57.6283 25.2577V23.6761C57.629 23.6717 57.6286 23.6673 57.6272 23.6631C57.6258 23.6589 57.6235 23.6551 57.6205 23.652C57.6174 23.6489 57.6137 23.6465 57.6096 23.6451C57.6055 23.6438 57.6011 23.6434 57.5968 23.644ZM55.7606 22.6716L57.5804 22.6781C57.5931 22.6781 57.6053 22.6729 57.6143 22.6638C57.6233 22.6546 57.6283 22.6422 57.6283 22.6292L57.6321 21.5708C57.6336 21.1451 57.2366 20.7987 56.7455 20.797H56.608C56.1172 20.7953 55.718 21.1388 55.7164 21.5642L55.7127 22.6228C55.7127 22.6357 55.7177 22.6482 55.7267 22.6573C55.7357 22.6665 55.7479 22.6716 55.7606 22.6716Z" fill="#010101"/>
<path d="M64.5974 23.3895L66.327 25.4923C66.329 25.4948 66.3302 25.4978 66.3306 25.501C66.3311 25.5042 66.3306 25.5074 66.3293 25.5104C66.328 25.5133 66.3259 25.5158 66.3232 25.5176C66.3206 25.5194 66.3175 25.5204 66.3144 25.5205C65.9265 25.5214 65.538 25.5216 65.1489 25.5212C65.0585 25.5212 64.9609 25.4543 64.8561 25.3207C64.3543 24.6784 63.8535 24.0401 63.3538 23.4056C63.3458 23.3955 63.3357 23.3873 63.3242 23.3816C63.3128 23.376 63.3002 23.3729 63.2875 23.3728L62.8288 23.3702C62.8205 23.3704 62.8127 23.3738 62.8069 23.3798C62.8011 23.3859 62.7979 23.3939 62.7979 23.4023L62.7972 25.3136C62.7972 25.3409 62.7919 25.3679 62.7816 25.3931C62.7713 25.4183 62.7562 25.4412 62.7372 25.4605C62.7182 25.4798 62.6957 25.4951 62.6709 25.5055C62.6461 25.5159 62.6196 25.5212 62.5928 25.5212H61.9933C61.9642 25.5212 61.9353 25.5154 61.9083 25.504C61.8813 25.4927 61.8568 25.476 61.8362 25.455C61.8156 25.434 61.7992 25.409 61.7881 25.3816C61.7769 25.3541 61.7712 25.3247 61.7712 25.295V20.0599C61.7712 19.9972 61.7956 19.9371 61.839 19.8927C61.8824 19.8482 61.9413 19.8231 62.0028 19.8227C62.6948 19.8198 63.3912 19.8217 64.092 19.8285C64.9539 19.8375 65.7345 20.297 66.0045 21.1447C66.1081 21.4708 66.11 21.8215 66.01 22.1488C65.91 22.476 65.713 22.7637 65.4461 22.9724C65.1887 23.1697 64.9142 23.2648 64.6082 23.3535C64.5867 23.3599 64.5831 23.3719 64.5974 23.3895ZM62.8016 20.833L62.789 22.3111C62.7889 22.3182 62.7902 22.3252 62.7928 22.3318C62.7954 22.3384 62.7992 22.3444 62.8041 22.3495C62.809 22.3545 62.8148 22.3586 62.8212 22.3614C62.8276 22.3642 62.8344 22.3657 62.8414 22.3657L64.0775 22.3767C64.6131 22.3815 65.0504 22.038 65.0543 21.6093V21.5759C65.0582 21.1471 64.6271 20.7955 64.0914 20.7906L62.8553 20.7797C62.8483 20.7796 62.8414 20.7809 62.8349 20.7835C62.8285 20.7862 62.8226 20.7901 62.8176 20.795C62.8126 20.8 62.8087 20.8059 62.8059 20.8124C62.8032 20.8189 62.8017 20.8259 62.8016 20.833Z" fill="#010101"/>
<path d="M24.3064 36.3024C25.992 36.3178 27.6795 36.3189 29.3688 36.3056C29.9073 36.3013 30.4682 36.4292 31.0517 36.6893C32.4815 37.3261 33.192 38.7207 33.2072 40.2701C33.2198 41.582 33.2257 42.8958 33.2248 44.2115C33.2249 44.2151 33.2242 44.2187 33.2229 44.222C33.2216 44.2254 33.2197 44.2284 33.2172 44.231C33.2147 44.2335 33.2118 44.2356 33.2086 44.237C33.2053 44.2384 33.2018 44.2391 33.1983 44.2392H6.15413C6.14398 44.2391 6.13394 44.2371 6.12457 44.2331C6.11521 44.2291 6.10671 44.2232 6.09957 44.2159C6.09242 44.2086 6.08676 44.1998 6.08291 44.1903C6.07907 44.1807 6.07711 44.1705 6.07715 44.1601L6.07967 29.3437C6.07967 29.3365 6.08247 29.3297 6.08744 29.3246C6.09241 29.3196 6.09915 29.3167 6.10617 29.3167L8.53359 29.3154C8.54519 29.3156 8.55627 29.3204 8.56441 29.3288C8.57256 29.3372 8.57713 29.3486 8.57713 29.3604L8.57902 41.8434C8.57902 41.8522 8.58248 41.8607 8.58863 41.867C8.59478 41.8733 8.60313 41.8768 8.61183 41.8768H30.7129C30.7211 41.8768 30.729 41.8735 30.7349 41.8676C30.7408 41.8617 30.7442 41.8537 30.7444 41.8453C30.7495 41.4927 30.7499 41.1373 30.7457 40.7791C30.7515 40.5203 30.7173 40.2622 30.6441 40.0144C30.3387 39.1378 29.5846 38.8666 28.7101 38.864C26.3632 38.8576 24.0185 38.8557 21.6758 38.8582C21.6693 38.8582 21.663 38.8556 21.6584 38.8509C21.6538 38.8462 21.6512 38.8398 21.6512 38.8332L21.6506 34.1C21.6506 34.0692 21.6576 34.0387 21.6712 34.0112C21.6848 33.9836 21.7045 33.9597 21.7288 33.9413C23.7434 32.4242 25.7606 30.9034 27.7806 29.379C27.8608 29.3296 27.9541 29.3069 28.0476 29.3141C29.3062 29.3133 30.5477 29.3141 31.7723 29.3167C31.8459 29.3167 31.8533 29.339 31.7944 29.3835L24.3556 34.9907C24.3358 35.0057 24.3197 35.0252 24.3086 35.0476C24.2974 35.07 24.2915 35.0948 24.2913 35.1199L24.2875 36.2831C24.2876 36.2882 24.2896 36.293 24.2931 36.2966C24.2967 36.3002 24.3014 36.3023 24.3064 36.3024Z" fill="#DF9011"/>
<path d="M53.7589 44.3208C53.7581 44.3119 53.7554 44.3032 53.7511 44.2954C53.7468 44.2876 53.7408 44.2809 53.7337 44.2756C53.7266 44.2703 53.7185 44.2666 53.7099 44.2648C53.7013 44.2629 53.6924 44.263 53.6838 44.2649C51.1226 44.5232 48.7589 43.7739 48.5438 40.7361C48.5215 40.4233 48.5154 39.7429 48.5255 38.695C48.5326 37.9636 48.5429 37.5358 48.5564 37.4116C48.7697 35.4341 50.2348 34.2979 52.1354 34.3037C53.4966 34.3076 54.8541 34.3099 56.2078 34.3108C56.2198 34.3108 56.2314 34.3157 56.2399 34.3243C56.2484 34.333 56.2532 34.3448 56.2532 34.3571V41.8176C56.2532 41.8266 56.2549 41.8356 56.2583 41.8439C56.2617 41.8522 56.2667 41.8597 56.273 41.866C56.2793 41.8724 56.2867 41.8774 56.2949 41.8808C56.3031 41.8842 56.3119 41.8859 56.3207 41.8858L72.4892 41.8729C72.4964 41.8729 72.5034 41.87 72.5086 41.8649C72.5138 41.8597 72.5168 41.8527 72.5169 41.8453C72.5237 41.4892 72.5243 41.1321 72.5188 40.774C72.5134 40.4398 72.477 40.1795 72.4097 39.9931C72.079 39.0806 71.2556 38.8518 70.3709 38.8524C68.0636 38.8546 65.7597 38.8569 63.4591 38.8595C63.4502 38.8595 63.4417 38.8559 63.4354 38.8495C63.4292 38.8431 63.4256 38.8345 63.4256 38.8254L63.4231 34.0981C63.4232 34.0681 63.4301 34.0385 63.4433 34.0117C63.4566 33.9849 63.4758 33.9617 63.4995 33.9438L69.5191 29.4054C69.597 29.3465 69.6915 29.3147 69.7885 29.3148L73.5417 29.3154C73.6174 29.3154 73.6247 29.3383 73.5637 29.3842L66.1231 34.9946C66.1051 35.0082 66.0904 35.0259 66.0802 35.0463C66.07 35.0667 66.0646 35.0893 66.0644 35.1122L66.0626 36.231C66.061 36.2419 66.0619 36.253 66.0653 36.2634C66.0686 36.2739 66.0744 36.2833 66.0819 36.2911C66.0895 36.2989 66.0988 36.3048 66.109 36.3083C66.1192 36.3118 66.1301 36.3129 66.1408 36.3114C67.9728 36.3097 69.7193 36.3103 71.3805 36.3133C71.8146 36.3139 72.4419 36.5279 72.8564 36.713C74.3355 37.3756 74.9999 38.8499 74.9999 40.4469C74.9995 41.6988 74.9988 42.9502 74.998 44.2013C74.998 44.2099 74.9946 44.2183 74.9886 44.2244C74.9825 44.2306 74.9743 44.234 74.9658 44.234L56.3043 44.2507C56.2968 44.2495 56.2891 44.2502 56.2818 44.2526C56.2746 44.255 56.268 44.2592 56.2627 44.2647C56.2573 44.2702 56.2533 44.277 56.251 44.2844C56.2487 44.2918 56.2482 44.2996 56.2494 44.3073C56.2677 45.1299 56.0948 46.0759 55.6392 46.7616C55.2903 47.2854 54.5237 47.6883 53.9488 47.8342C53.541 47.9348 53.1229 47.9853 52.7033 47.9846C51.3525 47.9927 50.0062 47.9979 48.6643 48C48.6593 48.0001 48.6543 47.9991 48.6496 47.9972C48.6449 47.9953 48.6407 47.9925 48.6371 47.9889C48.6335 47.9853 48.6307 47.9811 48.6287 47.9763C48.6268 47.9716 48.6258 47.9666 48.6258 47.9614L48.6208 45.4936C48.6208 45.4908 48.6214 45.488 48.6225 45.4854C48.6236 45.4828 48.6252 45.4805 48.6272 45.4785C48.6292 45.4765 48.6315 45.475 48.6341 45.4739C48.6367 45.4729 48.6394 45.4724 48.6422 45.4724C49.9858 45.4733 51.329 45.4718 52.6717 45.4679C53.3298 45.466 53.9065 45.0637 53.7589 44.3208ZM51.7397 36.8737C51.2526 37.0832 51.0059 37.6719 50.9971 38.1654C50.9916 38.4671 50.9916 39.1476 50.9971 40.2072C51.0008 40.9912 51.1914 41.6358 52.0016 41.8389C52.425 41.9449 53.1083 41.8909 53.622 41.8935C53.6304 41.8947 53.6389 41.8939 53.647 41.8912C53.655 41.8885 53.6624 41.8839 53.6684 41.8777C53.6744 41.8716 53.6789 41.8642 53.6816 41.856C53.6842 41.8478 53.685 41.8391 53.6838 41.8305L53.6825 36.8152C53.6834 36.8089 53.6828 36.8024 53.6808 36.7964C53.6789 36.7903 53.6756 36.7848 53.6712 36.7802C53.6668 36.7756 53.6615 36.7721 53.6556 36.7699C53.6497 36.7677 53.6434 36.767 53.6371 36.7677C53.2392 36.7587 52.849 36.7578 52.4666 36.7651C52.1339 36.7715 51.8916 36.8077 51.7397 36.8737Z" fill="#DF9011"/>
<path d="M44.7787 41.8678C44.8241 40.9237 44.6809 39.8794 44.2777 39.0478C43.4561 37.3518 41.6458 36.8422 39.8961 36.9643C39.8889 36.9648 39.8817 36.9639 39.8749 36.9614C39.8681 36.959 39.8619 36.9551 39.8566 36.9501C39.8513 36.9451 39.8471 36.9391 39.8443 36.9323C39.8414 36.9256 39.8399 36.9183 39.8399 36.911V34.3101C39.8391 34.3042 39.8396 34.2981 39.8415 34.2924C39.8433 34.2868 39.8465 34.2816 39.8506 34.2773C39.8548 34.2731 39.8599 34.2699 39.8655 34.268C39.8711 34.2661 39.877 34.2656 39.8829 34.2664C40.1336 34.2643 40.3895 34.2594 40.6508 34.2517C43.1703 34.1765 45.6021 35.4483 46.6382 37.8531C47.2118 39.186 47.432 40.5317 47.4358 41.9892C47.4375 42.7309 47.4373 43.471 47.4352 44.2096C47.4352 44.2221 47.4303 44.234 47.4217 44.2428C47.413 44.2516 47.4013 44.2565 47.3891 44.2565H38.0593C38.0521 44.2566 38.045 44.2552 38.0384 44.2524C38.0317 44.2497 38.0257 44.2456 38.0206 44.2405C38.0155 44.2353 38.0115 44.2292 38.0087 44.2225C38.0059 44.2158 38.0044 44.2086 38.0044 44.2013L38.0057 41.9025C38.0057 41.8998 38.0067 41.8971 38.0086 41.8952C38.0105 41.8933 38.0131 41.8922 38.0158 41.8922H44.7528C44.7594 41.8923 44.7657 41.8898 44.7706 41.8853C44.7754 41.8807 44.7783 41.8745 44.7787 41.8678Z" fill="#DF9011"/>
<path d="M0 47.9601V45.4223C1.60208 45.4262 1.99519 44.0444 1.99771 42.664C2.00276 39.8757 2.00591 37.0903 2.00718 34.3076C2.00718 34.3002 2.01003 34.2932 2.01512 34.288C2.02021 34.2828 2.02711 34.2799 2.03431 34.2799L4.39989 34.2774C4.41244 34.2774 4.42448 34.2824 4.43335 34.2915C4.44222 34.3005 4.44721 34.3128 4.44721 34.3256C4.44721 37.2059 4.40557 40.0973 4.45983 42.9776C4.504 45.3118 3.74871 47.597 1.13641 47.9055C0.759407 47.9517 0.379603 47.97 0 47.9601Z" fill="#DF9011"/>
</svg>
